# xmcd CD database file
#
# Track frame offsets:
#	150
#	17306
#	38624
#	52916
#	78461
#	93373
#	116303
#	121812
#	141411
#	157249
#	173879
#	196719
#	218633
#	243626
#
# Disc length: 3647 seconds
#
# Revision: 0
# Processed by: cddbd v1.5.2PL0 Copyright (c) Steve Scherf et al.
# Submitted via: CDex 1.70beta2
#
DISCID=ae0e3d0e
DTITLE=Ketil Bjørnstad - Shimmering
DYEAR=2012
DGENRE=Jazz
TTITLE0=Opening
TTITLE1=Shimmering
TTITLE2=Remembrance no.2
TTITLE3=Visitor (for Manfred)
TTITLE4=If Only
TTITLE5=Pampas
TTITLE6=Transmission
TTITLE7=Floating
TTITLE8=The Sea no.2
TTITLE9=Remembrance no.1
TTITLE10=The Sea no.9
TTITLE11=Kari Danser
TTITLE12=By The Fjord
TTITLE13=Late Summer
EXTD=YEAR: 2012
EXTT0=
EXTT1=
EXTT2=
EXTT3=
EXTT4=
EXTT5=
EXTT6=
EXTT7=
EXTT8=
EXTT9=
EXTT10=
EXTT11=
EXTT12=
EXTT13=
PLAYORDER=
